<svg width="306" height="74" viewBox="0 0 306 74" fill="none" xmlns="http://www.w3.org/2000/svg">
<rect x="8.60156" y="6.01709" width="288" height="61" rx="30.5" fill="#050C1B"/>
<g clip-path="url(#clip0_2004_45)">
<path d="M37.0771 30.979L42.5772 45.5116L44.8351 38.737L51.6013 36.479L37.0771 30.979Z" fill="#F7F7F7"/>
<path d="M36.9186 35.8592C34.9968 35.4414 33.6016 33.7084 33.6016 31.7388C33.6016 29.4141 35.493 27.5227 37.8177 27.5227C39.7873 27.5227 41.5202 28.918 41.9381 30.8397L40.9077 31.0641C40.5948 29.6226 39.2948 28.5767 37.8177 28.5767C36.074 28.5767 34.6556 29.9952 34.6556 31.7388C34.6556 33.2159 35.7014 34.516 37.143 34.8289L36.9186 35.8592Z" fill="#F7F7F7"/>
</g>
<path d="M71.3973 45.2306C69.5631 45.2306 68.0214 44.8906 66.7722 44.2107C65.523 43.5149 64.5822 42.5266 63.9497 41.2458C63.333 39.9651 63.0247 38.4392 63.0247 36.6682C63.0247 34.8972 63.3567 33.3713 64.0208 32.0905C64.685 30.8097 65.6337 29.8214 66.8671 29.1257C68.1162 28.43 69.6105 28.0821 71.3499 28.0821C72.5674 28.0821 73.6268 28.256 74.5281 28.6039C75.4294 28.9518 76.2359 29.4578 76.9474 30.1219L76.1173 31.877C75.6113 31.4343 75.1211 31.0785 74.6467 30.8097C74.1724 30.5409 73.6743 30.3512 73.1525 30.2405C72.6465 30.114 72.0456 30.0507 71.3499 30.0507C69.4049 30.0507 67.9186 30.6279 66.8908 31.7822C65.863 32.9365 65.3491 34.573 65.3491 36.6919C65.3491 38.8424 65.8472 40.479 66.8433 41.6016C67.8395 42.7243 69.3891 43.2856 71.4922 43.2856C72.2354 43.2856 72.9627 43.2145 73.6743 43.0722C74.3858 42.9299 75.0658 42.7243 75.7141 42.4555L75.2634 43.5703V37.9015H71.0652V36.1938H77.1609V44.0209C76.4493 44.3846 75.5718 44.6771 74.5281 44.8985C73.4845 45.1199 72.4409 45.2306 71.3973 45.2306ZM86.2308 45.2306C84.3333 45.2306 82.8312 44.685 81.7243 43.594C80.6332 42.5029 80.0877 41.0008 80.0877 39.0875C80.0877 37.8225 80.3249 36.7314 80.7993 35.8143C81.2895 34.8814 81.9615 34.1619 82.8153 33.6559C83.6692 33.1341 84.6654 32.8732 85.8039 32.8732C86.8949 32.8732 87.8199 33.1104 88.5789 33.5848C89.3379 34.0433 89.9151 34.6995 90.3104 35.5534C90.7057 36.4073 90.9033 37.4193 90.9033 38.5894V39.3009H81.7717V38.0201H89.4328L89.0296 38.3285C89.0296 37.0951 88.7529 36.1385 88.1994 35.4585C87.6618 34.7786 86.8633 34.4386 85.8039 34.4386C84.6496 34.4386 83.7562 34.8419 83.1237 35.6483C82.4912 36.4389 82.1749 37.522 82.1749 38.8977V39.1112C82.1749 40.5659 82.5307 41.6649 83.2423 42.4081C83.9696 43.1512 84.9737 43.5228 86.2545 43.5228C86.9661 43.5228 87.6302 43.42 88.2469 43.2145C88.8636 43.0089 89.4565 42.669 90.0258 42.1946L90.7373 43.6889C90.1997 44.179 89.5277 44.5585 88.7212 44.8273C87.9306 45.0962 87.1005 45.2306 86.2308 45.2306ZM98.1599 45.2306C96.9107 45.2306 95.962 44.8906 95.3137 44.2107C94.6812 43.5149 94.365 42.4713 94.365 41.0798V34.747H92.0405V33.0867H94.365V29.8847L96.5233 29.2917V33.0867H99.8914V34.747H96.5233V40.8901C96.5233 41.8072 96.6815 42.4634 96.9977 42.8587C97.3298 43.2382 97.8041 43.428 98.4208 43.428C98.7371 43.428 99.0059 43.4042 99.2272 43.3568C99.4644 43.2935 99.6779 43.2224 99.8676 43.1433V44.9222C99.6305 45.0171 99.3537 45.0882 99.0375 45.1357C98.7371 45.1989 98.4445 45.2306 98.1599 45.2306ZM112.441 45.2306C111.477 45.2306 110.575 45.1041 109.737 44.8511C108.915 44.5981 108.235 44.2344 107.698 43.76L108.385 42.2657C108.97 42.7085 109.611 43.0485 110.307 43.2856C111.018 43.507 111.745 43.6177 112.489 43.6177C113.39 43.6177 114.07 43.4517 114.528 43.1196C115.003 42.7876 115.24 42.3448 115.24 41.7914C115.24 41.3486 115.09 40.9929 114.789 40.724C114.489 40.4552 114.015 40.2576 113.366 40.1311L111.113 39.6804C110.101 39.4432 109.334 39.0637 108.812 38.5419C108.306 38.0043 108.053 37.3165 108.053 36.4784C108.053 35.7827 108.243 35.166 108.623 34.6284C109.002 34.075 109.54 33.648 110.235 33.3476C110.947 33.0313 111.777 32.8732 112.726 32.8732C113.596 32.8732 114.402 32.9997 115.145 33.2527C115.904 33.5057 116.529 33.8773 117.019 34.3675L116.307 35.8143C115.817 35.3874 115.264 35.0632 114.647 34.8419C114.046 34.6047 113.429 34.4861 112.797 34.4861C111.88 34.4861 111.2 34.6679 110.757 35.0316C110.314 35.3795 110.093 35.838 110.093 36.4073C110.093 36.8342 110.227 37.19 110.496 37.4746C110.765 37.7434 111.2 37.949 111.801 38.0913L114.054 38.5419C115.113 38.7633 115.912 39.127 116.45 39.633C116.987 40.139 117.256 40.811 117.256 41.6491C117.256 42.3922 117.051 43.0326 116.639 43.5703C116.244 44.1079 115.683 44.519 114.955 44.8036C114.244 45.0882 113.406 45.2306 112.441 45.2306ZM124.542 45.2306C123.293 45.2306 122.344 44.8906 121.696 44.2107C121.063 43.5149 120.747 42.4713 120.747 41.0798V34.747H118.423V33.0867H120.747V29.8847L122.906 29.2917V33.0867H126.274V34.747H122.906V40.8901C122.906 41.8072 123.064 42.4634 123.38 42.8587C123.712 43.2382 124.186 43.428 124.803 43.428C125.119 43.428 125.388 43.4042 125.609 43.3568C125.847 43.2935 126.06 43.2224 126.25 43.1433V44.9222C126.013 45.0171 125.736 45.0882 125.42 45.1357C125.119 45.1989 124.827 45.2306 124.542 45.2306ZM133.091 45.2306C132.048 45.2306 131.131 44.9855 130.34 44.4953C129.549 44.0051 128.933 43.2935 128.49 42.3606C128.047 41.4277 127.826 40.3208 127.826 39.04C127.826 37.7592 128.047 36.6603 128.49 35.7432C128.933 34.8102 129.549 34.0987 130.34 33.6085C131.131 33.1183 132.048 32.8732 133.091 32.8732C134.151 32.8732 135.068 33.142 135.843 33.6797C136.633 34.2015 137.155 34.9209 137.408 35.838H137.123L137.384 33.0867H139.472C139.424 33.5611 139.377 34.0354 139.329 34.5098C139.298 34.9842 139.282 35.4506 139.282 35.9092V45.0171H137.123V42.2895H137.384C137.131 43.1908 136.61 43.9102 135.819 44.4478C135.044 44.9697 134.135 45.2306 133.091 45.2306ZM133.589 43.5228C134.665 43.5228 135.526 43.1433 136.175 42.3843C136.823 41.6253 137.147 40.5106 137.147 39.04C137.147 37.5695 136.823 36.4626 136.175 35.7194C135.526 34.9763 134.665 34.6047 133.589 34.6047C132.514 34.6047 131.644 34.9763 130.98 35.7194C130.332 36.4626 130.008 37.5695 130.008 39.04C130.008 40.5106 130.332 41.6253 130.98 42.3843C131.629 43.1433 132.498 43.5228 133.589 43.5228ZM142.874 45.0171V36.0041C142.874 35.5297 142.859 35.0474 142.827 34.5572C142.811 34.0512 142.772 33.5611 142.708 33.0867H144.796L145.057 36.0752L144.701 36.0989C144.859 35.3716 145.128 34.7707 145.507 34.2963C145.903 33.8062 146.369 33.4504 146.907 33.229C147.46 32.9918 148.029 32.8732 148.614 32.8732C148.867 32.8732 149.081 32.8811 149.255 32.8969C149.429 32.9128 149.603 32.9523 149.777 33.0155L149.729 34.9367C149.492 34.8419 149.271 34.7865 149.065 34.7707C148.875 34.7391 148.638 34.7233 148.353 34.7233C147.658 34.7233 147.057 34.8814 146.551 35.1976C146.061 35.5139 145.681 35.9329 145.412 36.4547C145.159 36.9765 145.033 37.5379 145.033 38.1387V45.0171H142.874ZM156.784 45.2306C155.535 45.2306 154.587 44.8906 153.938 44.2107C153.306 43.5149 152.989 42.4713 152.989 41.0798V34.747H150.665V33.0867H152.989V29.8847L155.148 29.2917V33.0867H158.516V34.747H155.148V40.8901C155.148 41.8072 155.306 42.4634 155.622 42.8587C155.954 43.2382 156.429 43.428 157.045 43.428C157.362 43.428 157.63 43.4042 157.852 43.3568C158.089 43.2935 158.302 43.2224 158.492 43.1433V44.9222C158.255 45.0171 157.978 45.0882 157.662 45.1357C157.362 45.1989 157.069 45.2306 156.784 45.2306ZM166.095 45.2306C164.198 45.2306 162.696 44.685 161.589 43.594C160.498 42.5029 159.952 41.0008 159.952 39.0875C159.952 37.8225 160.19 36.7314 160.664 35.8143C161.154 34.8814 161.826 34.1619 162.68 33.6559C163.534 33.1341 164.53 32.8732 165.668 32.8732C166.76 32.8732 167.685 33.1104 168.444 33.5848C169.203 34.0433 169.78 34.6995 170.175 35.5534C170.57 36.4073 170.768 37.4193 170.768 38.5894V39.3009H161.636V38.0201H169.297L168.894 38.3285C168.894 37.0951 168.617 36.1385 168.064 35.4585C167.526 34.7786 166.728 34.4386 165.668 34.4386C164.514 34.4386 163.621 34.8419 162.988 35.6483C162.356 36.4389 162.04 37.522 162.04 38.8977V39.1112C162.04 40.5659 162.395 41.6649 163.107 42.4081C163.834 43.1512 164.838 43.5228 166.119 43.5228C166.831 43.5228 167.495 43.42 168.111 43.2145C168.728 43.0089 169.321 42.669 169.89 42.1946L170.602 43.6889C170.064 44.179 169.392 44.5585 168.586 44.8273C167.795 45.0962 166.965 45.2306 166.095 45.2306ZM178.143 45.2306C177.099 45.2306 176.182 44.9855 175.391 44.4953C174.601 44.0051 173.984 43.2935 173.541 42.3606C173.098 41.4277 172.877 40.3208 172.877 39.04C172.877 37.7592 173.098 36.6603 173.541 35.7432C173.984 34.8102 174.601 34.0987 175.391 33.6085C176.182 33.1183 177.099 32.8732 178.143 32.8732C179.186 32.8732 180.095 33.1341 180.87 33.6559C181.661 34.1777 182.19 34.8972 182.459 35.8143H182.175V27.5603H184.333V45.0171H182.198V42.242H182.459C182.206 43.175 181.685 43.9102 180.894 44.4478C180.119 44.9697 179.202 45.2306 178.143 45.2306ZM178.641 43.5228C179.716 43.5228 180.578 43.1433 181.226 42.3843C181.89 41.6253 182.222 40.5106 182.222 39.04C182.222 37.5695 181.89 36.4626 181.226 35.7194C180.578 34.9763 179.716 34.6047 178.641 34.6047C177.565 34.6047 176.696 34.9763 176.032 35.7194C175.383 36.4626 175.059 37.5695 175.059 39.04C175.059 40.5106 175.383 41.6253 176.032 42.3843C176.696 43.1433 177.565 43.5228 178.641 43.5228ZM194.867 45.0171V34.747H192.543V33.0867H195.46L194.867 33.6322V31.711C194.867 30.3195 195.215 29.268 195.911 28.5565C196.607 27.8291 197.619 27.4654 198.947 27.4654C199.263 27.4654 199.595 27.4891 199.943 27.5366C200.307 27.584 200.607 27.6631 200.844 27.7737V29.5289C200.655 29.4499 200.418 29.3866 200.133 29.3392C199.848 29.2917 199.572 29.268 199.303 29.268C198.828 29.268 198.417 29.3629 198.069 29.5526C197.722 29.7424 197.461 30.027 197.287 30.4065C197.113 30.7702 197.026 31.2525 197.026 31.8533V33.5373L196.694 33.0867H200.323V34.747H197.026V45.0171H194.867ZM207.084 45.2306C205.914 45.2306 204.902 44.9855 204.048 44.4953C203.194 43.9893 202.53 43.2777 202.055 42.3606C201.581 41.4277 201.344 40.3208 201.344 39.04C201.344 37.775 201.581 36.684 202.055 35.7669C202.53 34.834 203.194 34.1224 204.048 33.6322C204.902 33.1262 205.914 32.8732 207.084 32.8732C208.254 32.8732 209.266 33.1262 210.12 33.6322C210.989 34.1224 211.653 34.834 212.112 35.7669C212.586 36.684 212.824 37.775 212.824 39.04C212.824 40.3208 212.586 41.4277 212.112 42.3606C211.653 43.2777 210.989 43.9893 210.12 44.4953C209.266 44.9855 208.254 45.2306 207.084 45.2306ZM207.084 43.5228C208.159 43.5228 209.021 43.1433 209.669 42.3843C210.317 41.6253 210.642 40.5106 210.642 39.04C210.642 37.5695 210.317 36.4626 209.669 35.7194C209.021 34.9763 208.159 34.6047 207.084 34.6047C205.993 34.6047 205.123 34.9763 204.475 35.7194C203.842 36.4626 203.526 37.5695 203.526 39.04C203.526 40.5106 203.842 41.6253 204.475 42.3843C205.123 43.1433 205.993 43.5228 207.084 43.5228ZM215.698 45.0171V36.0041C215.698 35.5297 215.682 35.0474 215.65 34.5572C215.634 34.0512 215.595 33.5611 215.532 33.0867H217.619L217.88 36.0752L217.524 36.0989C217.682 35.3716 217.951 34.7707 218.33 34.2963C218.726 33.8062 219.192 33.4504 219.73 33.229C220.283 32.9918 220.852 32.8732 221.437 32.8732C221.69 32.8732 221.904 32.8811 222.078 32.8969C222.252 32.9128 222.426 32.9523 222.6 33.0155L222.552 34.9367C222.315 34.8419 222.094 34.7865 221.888 34.7707C221.698 34.7391 221.461 34.7233 221.177 34.7233C220.481 34.7233 219.88 34.8814 219.374 35.1976C218.884 35.5139 218.504 35.9329 218.235 36.4547C217.982 36.9765 217.856 37.5379 217.856 38.1387V45.0171H215.698ZM231.418 45.0171V34.747H229.094V33.0867H232.011L231.418 33.6322V31.711C231.418 30.3195 231.766 29.268 232.462 28.5565C233.157 27.8291 234.169 27.4654 235.498 27.4654C235.814 27.4654 236.146 27.4891 236.494 27.5366C236.857 27.584 237.158 27.6631 237.395 27.7737V29.5289C237.205 29.4499 236.968 29.3866 236.683 29.3392C236.399 29.2917 236.122 29.268 235.853 29.268C235.379 29.268 234.968 29.3629 234.62 29.5526C234.272 29.7424 234.011 30.027 233.837 30.4065C233.663 30.7702 233.576 31.2525 233.576 31.8533V33.5373L233.244 33.0867H236.873V34.747H233.576V45.0171H231.418ZM238.907 45.0171V36.0041C238.907 35.5297 238.891 35.0474 238.859 34.5572C238.843 34.0512 238.804 33.5611 238.74 33.0867H240.828L241.089 36.0752L240.733 36.0989C240.891 35.3716 241.16 34.7707 241.539 34.2963C241.935 33.8062 242.401 33.4504 242.939 33.229C243.492 32.9918 244.061 32.8732 244.646 32.8732C244.899 32.8732 245.113 32.8811 245.287 32.8969C245.461 32.9128 245.635 32.9523 245.809 33.0155L245.761 34.9367C245.524 34.8419 245.303 34.7865 245.097 34.7707C244.907 34.7391 244.67 34.7233 244.385 34.7233C243.69 34.7233 243.089 34.8814 242.583 35.1976C242.093 35.5139 241.713 35.9329 241.444 36.4547C241.191 36.9765 241.065 37.5379 241.065 38.1387V45.0171H238.907ZM252.978 45.2306C251.081 45.2306 249.579 44.685 248.472 43.594C247.381 42.5029 246.835 41.0008 246.835 39.0875C246.835 37.8225 247.072 36.7314 247.547 35.8143C248.037 34.8814 248.709 34.1619 249.563 33.6559C250.417 33.1341 251.413 32.8732 252.551 32.8732C253.642 32.8732 254.567 33.1104 255.326 33.5848C256.085 34.0433 256.663 34.6995 257.058 35.5534C257.453 36.4073 257.651 37.4193 257.651 38.5894V39.3009H248.519V38.0201H256.18L255.777 38.3285C255.777 37.0951 255.5 36.1385 254.947 35.4585C254.409 34.7786 253.611 34.4386 252.551 34.4386C251.397 34.4386 250.504 34.8419 249.871 35.6483C249.239 36.4389 248.922 37.522 248.922 38.8977V39.1112C248.922 40.5659 249.278 41.6649 249.99 42.4081C250.717 43.1512 251.721 43.5228 253.002 43.5228C253.714 43.5228 254.378 43.42 254.994 43.2145C255.611 43.0089 256.204 42.669 256.773 42.1946L257.485 43.6889C256.947 44.179 256.275 44.5585 255.469 44.8273C254.678 45.0962 253.848 45.2306 252.978 45.2306ZM265.903 45.2306C264.006 45.2306 262.503 44.685 261.396 43.594C260.305 42.5029 259.76 41.0008 259.76 39.0875C259.76 37.8225 259.997 36.7314 260.471 35.8143C260.962 34.8814 261.634 34.1619 262.488 33.6559C263.341 33.1341 264.338 32.8732 265.476 32.8732C266.567 32.8732 267.492 33.1104 268.251 33.5848C269.01 34.0433 269.587 34.6995 269.983 35.5534C270.378 36.4073 270.576 37.4193 270.576 38.5894V39.3009H261.444V38.0201H269.105L268.702 38.3285C268.702 37.0951 268.425 36.1385 267.872 35.4585C267.334 34.7786 266.535 34.4386 265.476 34.4386C264.322 34.4386 263.428 34.8419 262.796 35.6483C262.163 36.4389 261.847 37.522 261.847 38.8977V39.1112C261.847 40.5659 262.203 41.6649 262.914 42.4081C263.642 43.1512 264.646 43.5228 265.927 43.5228C266.638 43.5228 267.302 43.42 267.919 43.2145C268.536 43.0089 269.129 42.669 269.698 42.1946L270.41 43.6889C269.872 44.179 269.2 44.5585 268.393 44.8273C267.603 45.0962 266.773 45.2306 265.903 45.2306Z" fill="#F0F3FB"/>
<foreignObject x="-10" y="-10" width="325.203" height="93.0342"><div xmlns="http://www.w3.org/1999/xhtml" style="backdrop-filter:blur(5px);clip-path:url(#bgblur_1_2004_45_clip_path);height:100%;width:100%"></div></foreignObject><rect data-figma-bg-blur-radius="10" x="1" y="1" width="303.203" height="71.0342" rx="35.5171" stroke="white" stroke-opacity="0.7" stroke-width="2"/>
<defs>
<clipPath id="bgblur_1_2004_45_clip_path" transform="translate(10 10)"><rect x="1" y="1" width="303.203" height="71.0342" rx="35.5171"/>
</clipPath><clipPath id="clip0_2004_45">
<rect width="18" height="18" fill="white" transform="translate(33.6016 27.5171)"/>
</clipPath>
</defs>
</svg>
