<svg width="52" height="35" viewBox="0 0 52 35" fill="none" xmlns="http://www.w3.org/2000/svg">
<path d="M17.2885 0C16.7112 0 16.1109 0.0232533 15.5337 0.0930123C8.90714 0.767349 2.8578 5.55746 0.872142 11.9753C-0.651737 16.5561 -0.166866 21.7881 2.2344 25.9968C4.3355 29.8568 8.05285 32.7635 12.2089 34.0889C13.8713 34.6237 15.603 34.7865 17.3347 34.8795C18.6738 30.4149 20.1053 25.9736 21.4907 21.5323C21.6523 20.9975 21.7447 20.4626 21.8832 19.9278C20.7518 22.0671 18.0735 23.16 15.7646 22.3926C12.9016 21.6253 11.2853 18.0443 12.5552 15.3702C13.2248 13.6495 14.9334 12.4636 16.7112 12.2543C18.3506 12.0451 20.013 12.7194 21.1444 13.9053C22.1141 15.0214 22.599 16.5329 22.4835 17.9978C24.1459 13.2542 25.4851 8.25481 28.579 4.20879C25.462 1.55795 21.3983 0.023253 17.2885 0Z" fill="#00AEEF"/>
<path d="M41.8783 0.0231934C39.1076 0.0464464 36.2677 0.139459 33.5893 0.906808C31.6267 1.48813 29.8489 2.67404 28.579 4.27849C25.4851 8.30126 24.1228 13.3239 22.4835 18.0675C22.3219 18.7186 22.1141 19.3697 21.8601 19.9975C21.7215 20.5323 21.6292 21.0672 21.4676 21.602C20.0822 26.0433 18.6507 30.4846 17.3115 34.9492C20.0822 34.9027 22.876 34.2749 25.3465 32.9494C28.6483 31.2287 31.3728 28.3919 32.9428 24.9737C33.0814 24.7644 33.1275 24.3923 33.4508 24.4156C36.9834 24.1133 40.5391 22.6484 42.9173 19.951C44.6721 18.0908 45.7573 15.6492 46.3576 13.1611C43.2175 13.789 39.8926 14.0215 36.7525 13.1611C40.239 12.4403 43.6793 11.1381 46.4499 8.85933C49.1975 6.67355 51.1139 3.51114 51.899 0.0696986C48.5741 0.0231926 45.2262 0.0231934 41.8783 0.0231934Z" fill="#008CCF"/>
</svg>
