<svg width="15" height="15" viewBox="0 0 15 15" fill="none" xmlns="http://www.w3.org/2000/svg">
<path d="M6.59503 1.03356C6.99531 0.51204 7.78131 0.51204 8.18159 1.03356L9.2673 2.44814C9.46054 2.69991 9.76183 2.845 10.0792 2.83911L11.862 2.80598C12.5194 2.79376 13.0094 3.40828 12.8512 4.0464L12.4222 5.77721C12.3459 6.08528 12.4203 6.41129 12.6227 6.65572L13.7602 8.02898C14.1796 8.53527 14.0047 9.30157 13.4072 9.57576L11.7865 10.3195C11.498 10.4518 11.2895 10.7133 11.2247 11.024L10.8602 12.7695C10.7259 13.4131 10.0177 13.7541 9.4308 13.4579L7.83885 12.6545C7.55551 12.5115 7.2211 12.5115 6.93776 12.6545L5.34581 13.4579C4.75889 13.7541 4.05072 13.4131 3.91637 12.7695L3.55193 11.024C3.48707 10.7133 3.27857 10.4518 2.99011 10.3195L1.36941 9.57576C0.771893 9.30157 0.596992 8.53527 1.01637 8.02898L2.15388 6.65572C2.35634 6.41129 2.43075 6.08528 2.35439 5.77721L1.92537 4.0464C1.76719 3.40828 2.25726 2.79376 2.91457 2.80598L4.69746 2.83911C5.01479 2.845 5.31607 2.69991 5.50931 2.44814L6.59503 1.03356Z" fill="#00AEEF"/>
<path d="M4.93994 7.4364L6.88866 9.32607L9.83697 5.4505" stroke="#F5F5F5"/>
</svg>
